<?xml version="1.0" encoding="utf-8"?>
<svg viewBox="-538.094 -600 500 500" xmlns="http://www.w3.org/2000/svg">
  <path fill="#010202" d="M1125.09766,1174.09766c-55.14014,0-100-44.85986-100-100s44.85986-100,100-100s100,44.85986,100,100 S1180.23779,1174.09766,1125.09766,1174.09766z M1125.09766,994.09766c-44.1123,0-80,35.8877-80,80s35.8877,80,80,80 s80-35.8877,80-80S1169.20996,994.09766,1125.09766,994.09766z" transform="matrix(1, 0, 0, 1, -1411.571655, -1423.921387)"/>
  <path fill="#010202" d="M1125,958c-5.52295,0-10-4.47705-10-10v-54c0-5.52295,4.47705-10,10-10s10,4.47705,10,10v54 C1135,953.52295,1130.52295,958,1125,958z" transform="matrix(1, 0, 0, 1, -1411.571655, -1423.921387)"/>
  <path fill="#010202" d="M1125,1264c-5.52295,0-10-4.47705-10-10v-54c0-5.52295,4.47705-10,10-10s10,4.47705,10,10v54 C1135,1259.52295,1130.52295,1264,1125,1264z" transform="matrix(1, 0, 0, 1, -1411.571655, -1423.921387)"/>
  <path fill="#010202" d="M999,1084h-54c-5.52295,0-10-4.47705-10-10s4.47705-10,10-10h54c5.52295,0,10,4.47705,10,10 S1004.52295,1084,999,1084z" transform="matrix(1, 0, 0, 1, -1411.571655, -1423.921387)"/>
  <path fill="#010202" d="M1305,1084h-54c-5.52295,0-10-4.47705-10-10s4.47705-10,10-10h54c5.52295,0,10,4.47705,10,10 S1310.52295,1084,1305,1084z" transform="matrix(1, 0, 0, 1, -1411.571655, -1423.921387)"/>
  <path fill="#010202" d="M1213.54199,995.45801c-2.55908,0-5.11865-0.97607-7.07129-2.92871 c-3.90479-3.90527-3.90479-10.2373,0-14.14258l38.7373-38.7373c3.90527-3.90527,10.2373-3.90527,14.14258,0 c3.90479,3.90527,3.90479,10.2373,0,14.14258l-38.7373,38.7373C1218.66064,994.48193,1216.10107,995.45801,1213.54199,995.45801z" transform="matrix(1, 0, 0, 1, -1411.571655, -1423.921387)"/>
  <path fill="#010202" d="M997.7207,1211.2793c-2.55908,0-5.11865-0.97607-7.07129-2.92871 c-3.90479-3.90527-3.90479-10.2373,0-14.14258l38.7373-38.7373c3.90527-3.90527,10.2373-3.90527,14.14258,0 c3.90479,3.90527,3.90479,10.2373,0,14.14258l-38.7373,38.7373C1002.83936,1210.30322,1000.27979,1211.2793,997.7207,1211.2793z" transform="matrix(1, 0, 0, 1, -1411.571655, -1423.921387)"/>
  <path fill="#010202" d="M1036.45801,995.45801c-2.55908,0-5.11865-0.97607-7.07129-2.92871l-38.7373-38.7373 c-3.90479-3.90527-3.90479-10.2373,0-14.14258c3.90527-3.90527,10.2373-3.90527,14.14258,0l38.7373,38.7373 c3.90479,3.90527,3.90479,10.2373,0,14.14258C1041.57666,994.48193,1039.01709,995.45801,1036.45801,995.45801z" transform="matrix(1, 0, 0, 1, -1411.571655, -1423.921387)"/>
  <path fill="#010202" d="M1252.2793,1211.2793c-2.55908,0-5.11865-0.97607-7.07129-2.92871l-38.7373-38.7373 c-3.90479-3.90527-3.90479-10.2373,0-14.14258c3.90527-3.90527,10.2373-3.90527,14.14258,0l38.7373,38.7373 c3.90479,3.90527,3.90479,10.2373,0,14.14258C1257.39795,1210.30322,1254.83838,1211.2793,1252.2793,1211.2793z" transform="matrix(1, 0, 0, 1, -1411.571655, -1423.921387)"/>
</svg>