<?xml version="1.0" encoding="utf-8"?>
<svg viewBox="-532.482 621.189 500 500" xmlns="http://www.w3.org/2000/svg">
  <path fill="#010202" d="M1245.57959,2354.09082l-10.58398-0.00391l0,0L1004.7168,2354C966.2749,2354,935,2322.63867,935,2284.08984 c0-33.27637,22.98633-61.09375,54.27881-68.16797c-0.50879-2.79883-0.76416-5.65625-0.76416-8.55859 c0-26.25293,21.35791-47.61035,47.61084-47.61035c8.72021,0,17.07812,2.32617,24.36914,6.68652 c19.98242-26.4248,50.81396-41.90137,84.46094-41.90137c52.58496,0,96.90967,38.72852,104.77832,89.7666 c36.40186,2.44824,65.26611,32.83398,65.26611,69.83301c0,38.19629-31.09619,69.57715-69.31836,69.95215 C1245.64795,2354.09082,1245.61377,2354.09082,1245.57959,2354.09082z M1235.00342,2334.08691l10.53174,0.00391 C1272.81494,2333.7959,1295,2311.39746,1295,2284.1377c0-27.56543-22.4375-49.99219-50.0166-49.99219 c-1.18506,0-2.44189,0.07617-3.51562,0.15039c-2.65137,0.19336-5.27344-0.69629-7.27686-2.44922 c-2.00293-1.75195-3.2251-4.23047-3.39551-6.88574c-2.89258-45.09668-40.59814-80.42285-85.83984-80.42285 c-30.33838,0-57.85742,15.50977-73.61377,41.48926c-1.59473,2.62988-4.31152,4.37988-7.36572,4.74414 c-3.05371,0.36035-6.10645-0.69727-8.2749-2.87793c-5.2207-5.25-12.17285-8.14062-19.57568-8.14062 c-15.22461,0-27.61084,12.38574-27.61084,27.61035c0,4.34473,0.98584,8.50781,2.92969,12.37402 c1.52734,3.03711,1.40674,6.64258-0.31982,9.57129c-1.72656,2.92773-4.82275,4.7793-8.21973,4.91309 C976.04248,2235.28223,955,2257.1875,955,2284.08984C955,2311.61035,977.30273,2334,1004.7168,2334H1015L1235.00342,2334.08691z" transform="matrix(1, 0, 0, 1, -1411.571655, -1423.921387)"/>
  <path fill="#010202" d="M1222.625,2439c-0.00244,0-0.00439,0-0.00684,0l-56.375-0.02393 c-5.52246-0.00391-9.99658-4.47144-9.99316-9.99487c0.00342-5.52051,4.48047-9.9812,10-9.9812c0.00244,0,0.00439,0,0.00684,0 l56.375,0.03174c5.52246,0.00391,9.99658,4.46753,9.99316,9.99097C1232.62158,2434.54321,1228.14453,2439,1222.625,2439z" transform="matrix(1, 0, 0, 1, -1411.571655, -1423.921387)"/>
  <path fill="#010202" d="M1127.25,2439c-0.00146,0-0.00244,0-0.00391,0l-99.41602-0.02393 c-5.52246-0.00195-9.99805-4.46851-9.99609-9.99194c0.00195-5.52148,4.479-9.98413,10-9.98413c0.00146,0,0.00244,0,0.00391,0 l99.41602,0.03174c5.52246,0.00195,9.99805,4.4646,9.99609,9.98804C1137.24805,2434.54126,1132.771,2439,1127.25,2439z" transform="matrix(1, 0, 0, 1, -1411.571655, -1423.921387)"/>
  <path fill="#010202" d="M1245.875,2397c-0.00098,0-0.00195,0-0.00293,0l-129.54102-0.02393 c-5.52295-0.00195-9.99854-4.46851-9.99707-9.99097c0.00146-5.52148,4.47852-9.98511,10-9.98511c0.00098,0,0.00195,0,0.00293,0 l129.54102,0.03174c5.52295,0.00195,9.99854,4.4646,9.99707,9.98706C1255.87354,2392.54028,1251.39648,2397,1245.875,2397z" transform="matrix(1, 0, 0, 1, -1411.571655, -1423.921387)"/>
  <path fill="#010202" d="M1078.875,2397c-0.00195,0-0.00293,0-0.00537,0l-71.54102-0.02393 c-5.52246-0.00293-9.99756-4.47046-9.99463-9.99292c0.00293-5.52148,4.47998-9.98315,10-9.98315c0.00195,0,0.00293,0,0.00537,0 l71.54102,0.03174c5.52246,0.00293,9.99756,4.46655,9.99463,9.98901C1088.87207,2392.54224,1084.39502,2397,1078.875,2397z" transform="matrix(1, 0, 0, 1, -1411.571655, -1423.921387)"/>
</svg>