<?xml version="1.0" encoding="utf-8"?>
<svg viewBox="1117.501 -600 500 500" xmlns="http://www.w3.org/2000/svg">
  <path fill="#010202" d="M2868.53223,1073.50049c-2.51562,0-5.02637-0.99268-6.89453-2.96191 c-3.61035-3.80664-3.45215-9.81934,0.35449-13.43018c14.49023-13.74561,22.4707-32.31055,22.4707-52.2749 c0-39.72217-32.31641-72.03809-72.03809-72.03809c-34.88867,0-64.70117,24.87305-70.88867,59.14258 c-0.93262,5.16211-5.87695,8.59131-11.03613,7.66064c-5.16406-0.93213-8.59375-5.87354-7.66113-11.03662 c7.82129-43.32275,45.49805-74.7666,89.58594-74.7666c50.19824,0,91.03809,40.83936,91.03809,91.03809 c0,25.22949-10.08398,48.68994-28.39453,66.05908C2873.23145,1072.63574,2870.87891,1073.50049,2868.53223,1073.50049z" transform="matrix(1, 0, 0, 1, -1411.571655, -1423.921387)"/>
  <path fill="#010202" d="M2784.26855,905.82764c-4.37012,0-8.30371-3.03271-9.27246-7.47705l-10.01855-45.91992 c-1.11914-5.12598,2.12988-10.18799,7.25586-11.30664c5.13574-1.11963,10.18945,2.13135,11.30664,7.25684l10.01855,45.91992 c1.11914,5.12598-2.12988,10.18799-7.25586,11.30664C2785.62012,905.75635,2784.93848,905.82764,2784.26855,905.82764z" transform="matrix(1, 0, 0, 1, -1411.571655, -1423.921387)"/>
  <path fill="#010202" d="M2923.90039,994.60498c-4.37012,0-8.30371-3.03271-9.27246-7.47705 c-1.11914-5.12598,2.12988-10.18799,7.25586-11.30664l48.85059-10.65771c5.13672-1.11963,10.18945,2.13135,11.30664,7.25684 c1.11914,5.12598-2.12988,10.18799-7.25586,11.30664l-48.85059,10.65771 C2925.25195,994.53369,2924.57031,994.60498,2923.90039,994.60498z" transform="matrix(1, 0, 0, 1, -1411.571655, -1423.921387)"/>
  <path fill="#010202" d="M2872.77246,921.85742c-1.75684,0-3.53418-0.48633-5.12305-1.50586 c-4.41504-2.83398-5.69727-8.71094-2.86328-13.12646l26.80859-41.76904c2.83398-4.41553,8.70996-5.69727,13.12695-2.86377 c4.41504,2.83398,5.69727,8.71094,2.86328,13.12646l-26.80859,41.76904 C2878.96191,920.31494,2875.89941,921.85742,2872.77246,921.85742z" transform="matrix(1, 0, 0, 1, -1411.571655, -1423.921387)"/>
  <path fill="#010202" d="M2716.02539,956.05469c-1.75684,0-3.53418-0.48633-5.12207-1.50586l-41.76953-26.80811 c-4.41602-2.83398-5.69824-8.71094-2.86426-13.12646s8.71094-5.69727,13.12598-2.86377l41.76953,26.80811 c4.41602,2.83398,5.69824,8.71094,2.86426,13.12646C2722.21484,954.51221,2719.15234,956.05469,2716.02539,956.05469z" transform="matrix(1, 0, 0, 1, -1411.571655, -1423.921387)"/>
  <path fill="#010202" d="M2947.76172,1105.62646c-1.75684,0-3.53418-0.48633-5.12305-1.50586l-41.76855-26.80811 c-4.41504-2.83398-5.69727-8.71094-2.86328-13.12646s8.70996-5.69873,13.12695-2.86377l41.76855,26.80811 c4.41504,2.83398,5.69727,8.71094,2.86328,13.12646C2953.95117,1104.08398,2950.88867,1105.62646,2947.76172,1105.62646z" transform="matrix(1, 0, 0, 1, -1411.571655, -1423.921387)"/>
  <path fill="#010202" d="M2631.11035,1213.56055c-35.09863-0.23096-63.60254-28.88037-63.60254-63.86475 c0-30.25537,20.77051-55.56934,49.10938-62.17969c-0.41699-2.4292-0.62598-4.90479-0.62598-7.41895 c0-24.02686,19.54688-43.57422,43.57422-43.57422c7.8457,0,15.37207,2.05859,21.96484,5.9209 c18.19336-23.85791,46.14258-37.82031,76.63379-37.82031c47.74414,0,88.00684,35.07959,95.30957,81.36914 c33.04102,2.40674,59.1875,30.05859,59.1875,63.70312c0,34.86865-28.36816,63.51611-63.23633,63.85986L2631.11035,1213.56055z M2659.56543,1055.52295c-13.5498,0-24.57422,11.02393-24.57422,24.57422c0,3.86621,0.87695,7.57129,2.60742,11.01172 c1.45117,2.88574,1.33691,6.31055-0.30371,9.09277c-1.63965,2.78223-4.58105,4.54053-7.80859,4.66797 c-24.10059,0.95166-42.97852,20.6416-42.97852,44.82617c0,24.57617,20.03711,44.70264,44.66504,44.86475l218.1582-0.00439 c24.40137-0.24072,44.33008-20.36523,44.33008-44.86035c0-24.74316-20.13086-44.87354-44.87402-44.87354 c-0.92578,0-1.92773,0.03955-3.15527,0.12451c-2.53027,0.17969-5.01074-0.66309-6.91211-2.32715 c-1.90332-1.66455-3.06348-4.01904-3.22559-6.54199c-2.60645-40.62842-36.57324-72.4541-77.33008-72.4541 c-27.33105,0-52.12305,13.97168-66.31641,37.37402c-1.51562,2.49805-4.0957,4.16016-6.99707,4.50635 c-2.90332,0.34473-5.80176-0.6626-7.86133-2.7334C2672.34082,1058.09668,2666.15234,1055.52295,2659.56543,1055.52295z" transform="matrix(1, 0, 0, 1, -1411.571655, -1423.921387)"/>
  <path fill="#010202" d="M2714.45215,1312.82178c-2.43262,0-4.86523-0.92871-6.7207-2.78564 c-3.70801-3.71191-3.70508-9.72705,0.00684-13.43506l22.6875-22.66455c3.71191-3.70752,9.72656-3.70508,13.43457,0.00635 c3.70801,3.71191,3.70508,9.72705-0.00684,13.43506l-22.6875,22.66455 C2719.31152,1311.89551,2716.88184,1312.82178,2714.45215,1312.82178z" transform="matrix(1, 0, 0, 1, -1411.571655, -1423.921387)"/>
  <path fill="#010202" d="M2635.63184,1261.18115c-2.43262,0-4.86523-0.92871-6.7207-2.78613 c-3.70801-3.71191-3.70508-9.72656,0.00684-13.43506l14.30762-14.29297c3.71094-3.70703,9.72559-3.70459,13.43457,0.00732 c3.70801,3.71191,3.70508,9.72656-0.00684,13.43506l-14.30762,14.29297 C2640.49121,1260.25488,2638.06152,1261.18115,2635.63184,1261.18115z" transform="matrix(1, 0, 0, 1, -1411.571655, -1423.921387)"/>
  <path fill="#010202" d="M2761.56348,1261.18115c-2.43262,0-4.86523-0.92822-6.7207-2.78564 c-3.70801-3.71191-3.70508-9.72705,0.00684-13.43506l14.30664-14.29297c3.71191-3.70703,9.72656-3.70557,13.43457,0.00635 s3.70508,9.72705-0.00684,13.43506l-14.30664,14.29297C2766.42285,1260.25439,2763.99316,1261.18115,2761.56348,1261.18115z" transform="matrix(1, 0, 0, 1, -1411.571655, -1423.921387)"/>
  <path fill="#010202" d="M2802.33301,1283.97852c-2.43359,0-4.86621-0.9292-6.72168-2.78662 c-3.70801-3.7124-3.7041-9.72754,0.00879-13.43506l37.1377-37.09033c3.71191-3.70801,9.72656-3.70361,13.43457,0.0083 c3.70801,3.7124,3.7041,9.72754-0.00879,13.43506l-37.1377,37.09033 C2807.19141,1283.05273,2804.7627,1283.97852,2802.33301,1283.97852z" transform="matrix(1, 0, 0, 1, -1411.571655, -1423.921387)"/>
  <path fill="#010202" d="M2665.5293,1293.94434c-2.43262,0-4.86523-0.92871-6.7207-2.78564 c-3.70801-3.71191-3.70508-9.72705,0.00684-13.43506l47.10352-47.05615c3.71191-3.70801,9.72656-3.70459,13.43457,0.00635 c3.70801,3.71191,3.70508,9.72705-0.00684,13.43506l-47.10352,47.05615 C2670.38867,1293.01807,2667.95898,1293.94434,2665.5293,1293.94434z" transform="matrix(1, 0, 0, 1, -1411.571655, -1423.921387)"/>
</svg>