<?xml version="1.0" encoding="utf-8"?>
<svg viewBox="0 0 500 500" xmlns="http://www.w3.org/2000/svg">
  <path fill="#010202" d="M1785.5791,1742.09082l-10.58398-0.00391l0,0L1544.7168,1742c-38.44189,0-69.7168-31.36133-69.7168-69.91064 c0-33.27637,22.98633-61.09375,54.27881-68.16797c-0.5083-2.79883-0.76416-5.65527-0.76416-8.55762 c0-26.25293,21.35791-47.61133,47.61084-47.61133c8.7207,0,17.07764,2.32617,24.36914,6.68701 c19.98242-26.4248,50.81396-41.90137,84.46094-41.90137c52.58447,0,96.90967,38.72852,104.77881,89.76611 c36.40234,2.44824,65.26562,32.83398,65.26562,69.8335c0,38.19629-31.09668,69.57715-69.31836,69.95215 C1785.64746,1742.09082,1785.61328,1742.09082,1785.5791,1742.09082z M1775.00293,1722.08691l10.53125,0.00391 C1812.81445,1721.7959,1835,1699.39697,1835,1672.1377c0-27.56592-22.4375-49.99268-50.0166-49.99268 c-1.17871,0-2.43848,0.07666-3.51465,0.15137c-2.64258,0.18213-5.27344-0.69678-7.27734-2.44922 c-2.00293-1.75244-3.22559-4.23096-3.39551-6.88672c-2.89355-45.09668-40.59863-80.42236-85.84033-80.42236 c-30.33838,0-57.85742,15.51025-73.61377,41.48926c-1.59473,2.62988-4.31152,4.37939-7.36572,4.74414 c-3.05225,0.3623-6.10596-0.69678-8.2749-2.87793c-5.22119-5.25-12.17334-8.14111-19.57568-8.14111 c-15.22461,0-27.61084,12.38623-27.61084,27.61133c0,4.34375,0.98584,8.50684,2.93018,12.37402 c1.52686,3.03711,1.40625,6.64209-0.32031,9.5708c-1.72656,2.92822-4.82275,4.77881-8.21973,4.91309 c-26.8623,1.06055-47.90479,22.96533-47.90479,49.86768c0,27.521,22.30273,49.91064,49.7168,49.91064H1555L1775.00293,1722.08691z" transform="matrix(1, 0, 0, 1, -1411.571655, -1423.921387)"/>
  <path fill="#010202" d="M1569.00244,1877.05371c-2.56104,0-5.12158-0.97754-7.07471-2.93262 c-3.90332-3.90723-3.8999-10.23828,0.00732-14.1416l61.90332-61.84082c3.90723-3.90234,10.23877-3.90039,14.14209,0.00684 s3.8999,10.23828-0.00732,14.1416l-61.90332,61.84082C1574.11768,1876.07812,1571.56006,1877.05371,1569.00244,1877.05371z" transform="matrix(1, 0, 0, 1, -1411.571655, -1423.921387)"/>
  <path fill="#010202" d="M1630.87451,1877.08496c-2.56104,0-5.12158-0.97754-7.07471-2.93262l-61.84082-61.90332 c-3.90332-3.90723-3.8999-10.23828,0.00732-14.1416c3.90771-3.90234,10.23926-3.90039,14.14209,0.00684l61.84082,61.90332 c3.90332,3.90723,3.8999,10.23828-0.00732,14.1416C1635.98975,1876.10938,1633.43213,1877.08496,1630.87451,1877.08496z" transform="matrix(1, 0, 0, 1, -1411.571655, -1423.921387)"/>
  <path fill="#010202" d="M1649.9541,1846c-0.00195,0-0.00293,0-0.00488,0l-100,0.0293 c-5.52295-0.00293-9.99805-4.49707-9.99512-10.01953c0.00293-5.52148,4.47949-10.00977,10-10.00977c0.00146,0,0.00342,0,0.00488,0 l100,0.104c5.52295,0.00293,9.99805,4.43042,9.99512,9.95288C1659.95117,1841.57739,1655.47412,1846,1649.9541,1846z" transform="matrix(1, 0, 0, 1, -1411.571655, -1423.921387)"/>
  <path fill="#010202" d="M1599.92871,1896c-0.00195,0-0.00293,0-0.00488,0c-5.52295,0-9.99805-4.41602-9.99512-9.93848 l0.05078-100.0332c0.00293-5.52148,4.47998-10.02832,10-10.02832c0.00195,0,0.00293,0,0.00488,0 c5.52295,0,9.99805,4.54883,9.99512,10.07129l-0.05078,99.9668C1609.92578,1891.55957,1605.44873,1896,1599.92871,1896z" transform="matrix(1, 0, 0, 1, -1411.571655, -1423.921387)"/>
  <path fill="#010202" d="M1707.71094,1832.73438c-3.44531,0-6.79688-1.78125-8.65332-4.97363 c-2.77734-4.77344-1.15918-10.89453,3.61523-13.67188l60.50586-35.19922c4.77441-2.78125,10.89551-1.15918,13.67188,3.61523 c2.77734,4.77344,1.15918,10.89453-3.61523,13.67188l-60.50586,35.19922 C1711.14746,1832.29688,1709.41797,1832.73438,1707.71094,1832.73438z" transform="matrix(1, 0, 0, 1, -1411.571655, -1423.921387)"/>
  <path fill="#010202" d="M1768.70703,1831.83008c-1.61133,0-3.24512-0.39062-4.76172-1.21289l-61.52344-33.39062 c-4.85352-2.63477-6.65332-8.70508-4.01855-13.55957c2.63379-4.85352,8.70312-6.65234,13.55957-4.01855l61.52344,33.39062 c4.85352,2.63477,6.65332,8.70508,4.01855,13.55957C1775.69336,1829.93652,1772.25586,1831.83008,1768.70703,1831.83008z" transform="matrix(1, 0, 0, 1, -1411.571655, -1423.921387)"/>
  <path fill="#010202" d="M1737.93652,1850c-0.00195,0-0.00293,0-0.00488,0c-5.52344,0-9.99805-4.70996-9.99512-10.23242 l0.03516-68.79785c0.00293-5.52148,4.47949-9.96973,10-9.96973c0.00195,0,0.00293,0,0.00488,0 c5.52344,0,9.99805,4.34326,9.99512,9.86572l-0.03516,68.9812C1747.93359,1845.36841,1743.45703,1850,1737.93652,1850z" transform="matrix(1, 0, 0, 1, -1411.571655, -1423.921387)"/>
</svg>