<?xml version="1.0" encoding="utf-8"?>
<svg viewBox="-1066.939 43.429 500 500" xmlns="http://www.w3.org/2000/svg">
  <path fill="#010202" d="M715.57959,1764.09082l-10.58398-0.00391c-5.52246-0.00195-9.99805-4.48047-9.99609-10.00391 c0.00195-5.52148,4.479-9.99609,10-9.99609c0.00146,0,0.00244,0,0.00391,0l10.53174,0.00391 C742.81494,1743.7959,765,1721.39746,765,1694.1377c0-27.56592-22.4375-49.99268-50.0166-49.99268 c-1.17871,0-2.43848,0.07666-3.51562,0.15137c-2.65332,0.18652-5.27393-0.69678-7.27686-2.44922s-3.2251-4.23096-3.39551-6.88672 c-2.89258-45.09668-40.59814-80.42236-85.83984-80.42236c-30.33838,0-57.85742,15.51025-73.61377,41.48926 c-1.59473,2.62988-4.31152,4.37939-7.36572,4.74414c-3.05273,0.35986-6.10596-0.69678-8.2749-2.87793 c-5.22119-5.25-12.17334-8.14111-19.57568-8.14111c-15.22461,0-27.61084,12.38623-27.61084,27.61133 c0,4.34375,0.98584,8.50684,2.93018,12.37402c1.52686,3.03711,1.40625,6.64209-0.32031,9.5708 c-1.72656,2.92822-4.82275,4.77881-8.21973,4.91309C446.04248,1645.28223,425,1667.18701,425,1694.08936 c0,27.521,22.30273,49.91064,49.7168,49.91064H485c5.52295,0,10,4.47754,10,10s-4.47705,10-10,10h-10.2832 C436.2749,1764,405,1732.63867,405,1694.08936c0-33.27637,22.98633-61.09375,54.27881-68.16797 c-0.5083-2.79883-0.76416-5.65527-0.76416-8.55762c0-26.25293,21.35791-47.61133,47.61084-47.61133 c8.7207,0,17.07764,2.32617,24.36914,6.68701c19.98242-26.4248,50.81396-41.90137,84.46094-41.90137 c52.58496,0,96.90967,38.72852,104.77832,89.76611C756.13574,1626.75244,785,1657.13818,785,1694.1377 c0,38.19629-31.09619,69.57715-69.31836,69.95215C715.64795,1764.09082,715.61377,1764.09082,715.57959,1764.09082z" transform="matrix(1, 0, 0, 1, -1411.571655, -1423.921387)"/>
  <path fill="#010202" d="M501.0332,1858.08496c-2.55713,0-5.11377-0.97461-7.06592-2.92383 c-3.9082-3.90234-3.9126-10.23438-0.01025-14.14258L536.91504,1798H511.0332c-4.0918,0-7.77051-2.49219-9.2876-6.29297 c-1.5166-3.7998-0.56543-8.14062,2.40137-10.95801l63-59.8291c4.00488-3.80273,10.33398-3.6416,14.13721,0.36523 c3.80322,4.00391,3.64014,10.33398-0.36475,14.13672L536.08496,1778h24.94824c4.04346,0,7.68896,2.43457,9.2373,6.16992 c1.54883,3.73535,0.6958,8.03516-2.16113,10.89648l-60,60.08496C506.15625,1857.10645,503.59473,1858.08496,501.0332,1858.08496z" transform="matrix(1, 0, 0, 1, -1411.571655, -1423.921387)"/>
  <path fill="#010202" d="M602.95801,1822.93945c-2.56104,0-5.12158-0.97754-7.07471-2.93262 c-3.90332-3.90723-3.8999-10.23828,0.00732-14.1416L638.79883,1763h-25.84082c-4.0874,0-7.76318-2.4873-9.28271-6.28125 c-1.52002-3.79395-0.57812-8.13184,2.37891-10.95312l63-60.12109c3.99561-3.8125,10.3252-3.66553,14.13818,0.33057 c3.81299,3.99561,3.66504,10.3252-0.33057,14.13818L637.92139,1743h25.03662c4.04541,0,7.69238,2.4375,9.23975,6.17578 c1.54736,3.7373,0.68994,8.04004-2.17236,10.89844l-60,59.93945C608.07324,1821.96387,605.51562,1822.93945,602.95801,1822.93945z" transform="matrix(1, 0, 0, 1, -1411.571655, -1423.921387)"/>
  <path fill="#010202" d="M551.95801,1870.93945c-2.56104,0-5.12158-0.97754-7.07471-2.93262 c-3.90332-3.90723-3.8999-10.23926,0.00732-14.1416l25.04199-25.0166c3.90723-3.90332,10.23877-3.90039,14.14209,0.00684 s3.8999,10.23926-0.00732,14.1416l-25.04199,25.0166C557.07324,1869.96387,554.51514,1870.93945,551.95801,1870.93945z" transform="matrix(1, 0, 0, 1, -1411.571655, -1423.921387)"/>
  <path fill="#010202" d="M460.95801,1837.93945c-2.56104,0-5.12158-0.97754-7.07471-2.93262 c-3.90332-3.90723-3.8999-10.23828,0.00732-14.1416l15.79199-15.77637c3.90723-3.90234,10.23877-3.89941,14.14209,0.00684 c3.90332,3.90723,3.8999,10.23828-0.00732,14.1416l-15.79199,15.77637 C466.07324,1836.96387,463.51562,1837.93945,460.95801,1837.93945z" transform="matrix(1, 0, 0, 1, -1411.571655, -1423.921387)"/>
  <path fill="#010202" d="M639.95801,1851.93945c-2.56104,0-5.12158-0.97754-7.07471-2.93262 c-3.90332-3.90723-3.8999-10.23828,0.00732-14.1416l51.99219-51.93945c3.90723-3.90332,10.23877-3.90039,14.14209,0.00684 s3.8999,10.23828-0.00732,14.1416l-51.99219,51.93945C645.07324,1850.96387,642.51514,1851.93945,639.95801,1851.93945z" transform="matrix(1, 0, 0, 1, -1411.571655, -1423.921387)"/>
</svg>